<?xml version="1.0" encoding="UTF-8"?>
<svg id="katman_1" data-name="katman 1" xmlns="http://www.w3.org/2000/svg" viewBox="0 0 400 300">
  <defs>
    <style>
      .cls-1 {
        fill: #3f37a5;
      }

      .cls-2 {
        fill: #1e1e1e;
      }

      .cls-3 {
        fill: #e1a89e;
      }

      .cls-4 {
        fill: #efb3a7;
      }

      .cls-5 {
        fill: #4335a7;
      }

      .cls-6 {
        fill: #febeb2;
      }

      .cls-7, .cls-8 {
        fill: #fff6e9;
      }

      .cls-8 {
        stroke: #3f37a5;
        stroke-linecap: round;
        stroke-linejoin: round;
        stroke-width: 4px;
      }
    </style>
  </defs>
  <path class="cls-1" d="M150.3,109.41c-.7,3.58-1.91,7-3.72,10.2-5.45,9.64-15.21,15.78-27.4,18.34-5.38,1.17-11.19,1.62-17.31,1.36h-.04c-3.72-.15-7.51-.53-11.42-1.2-1.77-.3-3.54-.64-5.34-1.02h-.04c-6.33-1.47-12.82-3.54-19.37-6.25-.04-.04-.07-.08-.11-.08-5.23-2.18-10.46-4.78-15.61-7.83C10.73,99.77-9.63,60.72,4.47,35.72c14.1-25,57.37-26.47,96.59-3.31,4.6,2.71,8.95,5.65,13,8.77.04,0,.04.04.04.04,3.17,2.37,6.11,4.89,8.91,7.49v.04c11.38,10.5,19.7,22.37,24.19,34.04,0,.04.04.08.04.15,1.95,5.08,3.17,10.13,3.61,14.99v.04c.37,3.95.22,7.76-.55,11.45Z"/>
  <path class="cls-7" d="M150.3,109.41c-.7,3.58-1.91,7-3.72,10.2-5.45,9.64-15.21,15.78-27.4,18.34-5.38,1.17-11.19,1.62-17.31,1.36h-.04c-3.72-.15-7.51-.53-11.42-1.2-1.77-.3-3.54-.64-5.34-1.02h-.04c-6.33-1.47-12.82-3.54-19.37-6.25-.04-.04-.07-.08-.11-.08-3.35-1.58-6.7-3.35-10.02-5.31C20.01,104.44.79,69.72,10.84,45.96t0-.04c.44-1.13.99-2.22,1.58-3.28,13.4-23.72,54.46-25.19,91.69-3.2,26,15.36,43.27,38.07,46.73,58.47v.04c.37,3.95.22,7.76-.55,11.45Z"/>
  <path class="cls-1" d="M348.05,119.16c-5.08,3.01-10.24,5.57-15.39,7.76-.04.04-.11.04-.18.08-7.29,3.09-14.55,5.31-21.62,6.74-4.79.98-9.46,1.58-13.99,1.77-.22.04-.44.04-.66.04h-.04c-8.06.34-15.58-.56-22.17-2.6-9.94-3.09-17.86-8.81-22.54-17.09-3.65-6.48-5.01-13.86-4.27-21.65v-.04c0-.23.04-.41.04-.6.74-6.97,3.02-14.27,6.74-21.5,4.31-8.4,10.5-16.76,18.3-24.47,3.42-3.39,7.11-6.66,11.12-9.75.18-.15.41-.3.59-.41,4.05-3.13,8.36-6.06,12.96-8.77,39.26-23.16,82.53-21.69,96.63,3.31,14.1,25-6.26,64.05-45.52,87.2Z"/>
  <path class="cls-7" d="M342.49,121.68c-3.24,1.92-6.52,3.65-9.83,5.23-.04.04-.11.04-.18.08-7.29,3.09-14.55,5.31-21.62,6.74-4.79.98-9.46,1.58-13.99,1.77-.22.04-.44.04-.66.04h-.04c-8.06.34-15.58-.56-22.17-2.6-9.94-3.09-17.86-8.81-22.54-17.09-3.65-6.48-5.01-13.86-4.27-21.65v-.04c3.46-20.41,20.73-43.11,46.73-58.47,37.23-21.99,78.29-20.52,91.69,3.2.59,1.05,1.14,2.15,1.58,3.28t0,.04c10.05,23.76-9.17,58.47-44.71,79.48Z"/>
  <path class="cls-7" d="M312.33,156.62c0,18.15-2.69,35.54-7.62,51.51-.55,1.88-1.18,3.73-1.8,5.53-4.93,14.42-11.75,27.64-20.03,39.12-20.92,28.99-51.11,47.22-84.7,47.22s-63.78-18.22-84.7-47.22c-9.35-12.95-16.79-28.09-21.8-44.69-.07-.23-.15-.41-.22-.64-1.1-3.54-2.06-7.15-2.91-10.84-.18-.72-.33-1.47-.48-2.18-.11-.41-.22-.83-.26-1.24-.26-1.05-.48-2.11-.66-3.16-.04-.15-.07-.26-.07-.41-.11-.45-.18-.9-.22-1.36-.07-.15-.11-.3-.07-.45-.33-1.77-.63-3.58-.92-5.35v-.08c-.26-1.69-.48-3.39-.66-5.12-.04-.41-.11-.87-.15-1.28-.22-1.96-.41-3.92-.52-5.91-.15-1.92-.29-3.92-.37-5.87,0-.6-.04-1.2-.04-1.81-.07-1.92-.11-3.84-.11-5.76,0-2.18.04-4.33.15-6.48.07-2.56.22-5.12.41-7.64.11-1.54.26-3.05.41-4.59v-.04c.04-.26.04-.53.07-.79.04-.23.04-.41.07-.64.07-.41.11-.79.15-1.2.52-4.14,1.14-8.21,1.91-12.2.29-1.58.63-3.13.96-4.67.07-.34.15-.64.22-.94.15-.68.29-1.36.48-2.03.37-1.69.81-3.39,1.25-5.05.55-2.07,1.14-4.14,1.8-6.17.63-2.03,1.29-4.03,2.03-6.02,1.4-3.95,2.95-7.83,4.64-11.6.81-1.88,1.69-3.73,2.61-5.57,2.5-5.08,5.27-9.94,8.25-14.57.44-.68.88-1.36,1.33-2,.88-1.36,1.8-2.67,2.73-3.95.55-.75,1.1-1.51,1.66-2.22,1.73-2.3,3.46-4.48,5.3-6.59.07-.15.22-.26.33-.41.41-.45.77-.87,1.14-1.28.33-.41.7-.79,1.1-1.2v-.04c.18-.23.37-.41.59-.64.22-.3.52-.56.77-.83.48-.56.99-1.09,1.55-1.62.07-.11.15-.19.22-.23.11-.15.29-.34.48-.53,1.03-1.02,2.06-2.03,3.09-2.97.26-.26.52-.49.81-.72,10.2-9.53,21.76-16.91,34.17-21.69,10.61-4.1,21.8-6.29,33.47-6.29,3.13,0,6.22.15,9.32.49,1.55.15,3.09.34,4.6.56,3.83.6,7.59,1.39,11.27,2.49.92.23,1.84.49,2.73.79,1.29.41,2.54.83,3.83,1.28,1.18.45,2.36.9,3.54,1.39.22.08.48.15.7.26.04,0,.11.04.15.08.99.41,1.99.83,2.98,1.32,6.52,2.97,12.78,6.7,18.67,11.11,1.1.79,2.21,1.62,3.31,2.52,2.54,2,4.97,4.14,7.37,6.4.48.41.92.87,1.36,1.36.7.64,1.4,1.32,2.1,2.03.48.45.92.94,1.4,1.43.26.3.55.56.77.87.77.75,1.47,1.54,2.17,2.33.37.41.74.83,1.07,1.24,1.1,1.28,2.17,2.56,3.24,3.88.18.23.33.41.52.64,1.22,1.54,2.43,3.16,3.61,4.78,1.1,1.54,2.17,3.09,3.24,4.71.11.19.26.38.37.56.92,1.39,1.8,2.82,2.65,4.25.15.23.29.41.41.64.96,1.62,1.91,3.28,2.84,4.97,1.07,1.96,2.1,3.92,3.06,5.91.74,1.54,1.47,3.09,2.17,4.63.15.3.26.56.37.83.77,1.73,1.51,3.46,2.21,5.23.04.08.07.11.04.11.77,1.84,1.47,3.77,2.17,5.69,0,.04.04.11.04.15.66,1.88,1.33,3.77,1.91,5.69.77,2.45,1.47,4.89,2.14,7.38.26,1.02.55,2.03.77,3.09.26.9.44,1.84.66,2.75.11.53.26,1.05.33,1.58.33,1.39.63,2.82.88,4.25.29,1.36.55,2.75.74,4.14.29,1.69.55,3.39.77,5.08.11.53.18,1.09.22,1.62.07.3.11.6.11.9.22,1.62.41,3.28.55,4.93.04.38.07.75.07,1.17.15,1.05.22,2.11.26,3.16.18,1.92.26,3.88.33,5.84.11,2.3.15,4.59.15,6.89Z"/>
  <path class="cls-1" d="M312.33,156.62c0,18.15-2.69,35.54-7.62,51.51-.55,1.88-1.18,3.73-1.8,5.53l-41.5-36.26s-25.67-24.66-20-63.29c.99-6.48,2.84-13.33,5.82-20.56.04-.08.07-.15.11-.23.74-1.81,1.58-3.65,2.5-5.53,2.25-4.59,3.54-8.62,3.98-12.2v-.04c.15-1.24.22-2.41.15-3.5-.07-2-.44-3.84-1.07-5.57-5.27-13.78-28.17-19.2-54.72-30.05-10.86-4.41-22.35-9.75-33.47-16.94,10.61-4.1,21.8-6.29,33.47-6.29,3.13,0,6.22.15,9.32.49,1.55.15,3.09.34,4.6.56,3.83.6,7.59,1.39,11.27,2.49.92.23,1.84.49,2.73.79,1.29.41,2.54.83,3.83,1.28,1.18.45,2.36.9,3.54,1.39.22.08.48.15.7.26.04,0,.11.04.15.08.99.41,1.99.83,2.98,1.32,6.52,2.97,12.78,6.7,18.67,11.11,1.1.79,2.21,1.62,3.31,2.52,2.54,2,4.97,4.14,7.37,6.4.48.41.92.87,1.36,1.36.7.64,1.4,1.32,2.1,2.03.48.45.92.94,1.4,1.43.26.3.55.56.77.87.77.75,1.47,1.54,2.17,2.33.37.41.74.83,1.07,1.24,1.1,1.28,2.17,2.56,3.24,3.88.18.23.33.41.52.64,1.22,1.54,2.43,3.16,3.61,4.78,1.1,1.54,2.17,3.09,3.24,4.71.11.19.26.38.37.56.92,1.39,1.8,2.82,2.65,4.25.15.23.29.41.41.64.96,1.62,1.91,3.28,2.84,4.97,1.07,1.96,2.1,3.92,3.06,5.91.74,1.54,1.47,3.09,2.17,4.63.15.3.26.56.37.83.77,1.73,1.51,3.46,2.21,5.23.04.08.07.11.04.11.77,1.88,1.47,3.77,2.17,5.69,0,.04.04.11.04.15.66,1.88,1.33,3.77,1.91,5.69.77,2.45,1.47,4.89,2.14,7.38.26,1.02.55,2.03.77,3.09.26.9.44,1.84.66,2.75.11.53.26,1.05.33,1.58.33,1.39.63,2.82.88,4.25.29,1.36.55,2.75.74,4.14.29,1.69.55,3.39.77,5.08.11.53.18,1.09.22,1.62.07.3.11.6.11.9.22,1.62.41,3.28.55,4.93.04.38.07.75.07,1.17.15,1.05.22,2.11.26,3.16.18,1.92.26,3.88.33,5.84.11,2.3.15,4.59.15,6.89Z"/>
  <path class="cls-1" d="M150.3,109.41c-.04,2.07-.11,4.18-.26,6.25-.33,4.93-1.03,9.83-2.1,14.68-2.14,9.94-5.82,19.77-11.05,29.37-10.27,18.68-25.74,34.9-45.22,48.38,0,.04-.04.04-.04.04-.07-.23-.15-.45-.18-.68-1.1-3.54-2.06-7.15-2.91-10.84-.18-.72-.33-1.47-.48-2.18-.11-.41-.22-.83-.26-1.24-.26-1.05-.48-2.11-.66-3.16-.04-.15-.07-.26-.07-.41-.11-.45-.18-.9-.22-1.36-.07-.15-.11-.3-.07-.45-.33-1.77-.63-3.58-.92-5.35v-.08c-.26-1.69-.48-3.39-.66-5.12-.04-.41-.11-.87-.15-1.28-.22-1.96-.41-3.92-.52-5.91-.15-1.92-.29-3.92-.37-5.87,0-.6-.04-1.2-.04-1.81-.07-1.92-.11-3.84-.11-5.76,0-2.18.04-4.33.15-6.48.07-2.56.22-5.12.41-7.64.11-1.54.26-3.09.44-4.59,0-.26.04-.56.07-.83,0-.19.04-.41.04-.64.07-.41.11-.79.15-1.2.52-4.14,1.14-8.21,1.91-12.2.29-1.58.63-3.13.96-4.67.07-.34.15-.64.22-.94.15-.68.29-1.36.48-2.03.37-1.69.81-3.39,1.25-5.05.55-2.07,1.14-4.14,1.8-6.17.63-2.03,1.29-4.03,2.03-6.02,1.4-3.95,2.95-7.83,4.64-11.6.81-1.88,1.69-3.73,2.61-5.57,2.5-5.08,5.27-9.94,8.25-14.57.44-.68.88-1.36,1.33-2,.88-1.36,1.8-2.67,2.73-3.95.55-.75,1.1-1.51,1.66-2.22,1.73-2.3,3.46-4.48,5.3-6.59.07-.15.22-.26.33-.41.41-.45.77-.87,1.14-1.28.33-.41.7-.79,1.1-1.2v-.04c.18-.23.37-.41.59-.64.22-.3.52-.56.77-.83.48-.56.99-1.09,1.55-1.62.07-.11.15-.19.22-.23,1.18-1.2,2.36-2.37,3.57-3.5.41.56.74,1.17,1.1,1.77,1.36,2.26,2.65,4.52,3.87,6.81,2.76,5.12,5.19,10.32,7.22,15.51,2.17,5.57,3.98,11.18,5.3,16.79,0,.04.04.08.04.15.48,2,.88,4.03,1.25,6.02,1.25,6.81,1.84,13.63,1.8,20.44Z"/>
  <path class="cls-8" d="M271.81,24.51c0,9.73,1.08,22.58-15.02,22.58s-29.16-7.89-29.16-17.61c0-6.76,20.03-19.16,32.26-26.11,4.5-2.56,10.11.36,10.73,5.58s1.18,11.05,1.18,15.56Z"/>
  <path class="cls-1" d="M128.22,24.51c0,9.73-1.08,22.58,15.02,22.58,16.1,0,29.16-7.89,29.16-17.61,0-6.76-20.03-19.16-32.26-26.11-4.5-2.56-10.11.36-10.73,5.58-.61,5.09-1.18,11.05-1.18,15.56Z"/>
  <path class="cls-4" d="M200.38,295.84c-17.57,0-33.59-5.15-45.69-13.6-13.77-9.66-22.43-23.6-22.43-39.11s8.66-29.45,22.43-39.11c12.09-8.45,28.12-13.6,45.69-13.6,17.58,0,33.61,5.15,45.69,13.6,13.79,9.66,22.45,23.6,22.45,39.11,0,15.51-8.66,29.45-22.45,39.11-12.07,8.45-28.1,13.6-45.69,13.6Z"/>
  <path class="cls-6" d="M200.38,290.66c-17.57,0-33.59-5.15-45.69-13.6-13.77-9.66-22.43-23.6-22.43-39.11s8.66-29.45,22.43-39.11c12.09-8.45,28.12-13.6,45.69-13.6,17.58,0,33.61,5.15,45.69,13.6,13.79,9.66,22.45,23.6,22.45,39.11,0,15.51-8.66,29.45-22.45,39.11-12.07,8.45-28.1,13.6-45.69,13.6Z"/>
  <ellipse class="cls-3" cx="166.78" cy="223.42" rx="7.1" ry="4.41"/>
  <ellipse class="cls-3" cx="231.68" cy="223.42" rx="7.1" ry="4.41"/>
  <path class="cls-5" d="M399.79,25.06c-.56-1.65-2.07-2.69-3.69-2.69-.42,0-.85.07-1.28.22l-4.52,1.6,5.17-7.05c1.42-1.94,1.04-4.7-.87-6.16l-2-1.53c-1.9-1.45-4.6-1.06-6.02.89l-11.4,15.57c1.53.48,2.95,1.2,4.21,2.14,1,.74,1.91,1.61,2.69,2.58.63.78,1.18,1.63,1.64,2.54.25.5.48,1.02.68,1.55.16.44.3.89.43,1.34l9.74.69c1.41.1,2.63-.99,2.73-2.43,0-.06,0-.12,0-.18,0-1.36-1.03-2.51-2.38-2.61l-1.25-.09,3.7-1.31c2.04-.72,3.12-2.99,2.42-5.08Z"/>
  <path class="cls-5" d="M82.25,117.1c-.22,1.03.47,2.52,1.61,3.69.3.31.63.59.98.84l3.79,2.66-6.27-1.06c-1.73-.29-2.48,1.03-1.67,2.96l.84,2.02c.81,1.93,2.86,3.72,4.59,4.02l13.84,2.34c-.9-1.28-1.64-2.59-2.18-3.86-.43-1-.75-1.99-.94-2.92-.15-.75-.23-1.47-.22-2.15,0-.37.04-.73.1-1.08.05-.28.11-.56.2-.82l-6.63-7.3c-.96-1.06-2.23-1.53-2.83-1.05-.03.02-.05.04-.07.07-.5.52-.2,1.7.72,2.71l.85.94-3.1-2.18c-1.71-1.2-3.32-1.12-3.59.18Z"/>
  <path class="cls-5" d="M311.17,113.88c.57,1.19.3,2.58-.57,3.46-.23.23-.49.43-.8.58l-3.26,1.62,6.46.94c1.78.26,3.01,1.95,2.76,3.77l-.27,1.91c-.26,1.82-1.91,3.09-3.69,2.83l-14.26-2.07c.57-1.09.95-2.26,1.14-3.45.15-.95.18-1.91.09-2.86-.07-.76-.22-1.52-.45-2.26-.13-.41-.27-.81-.45-1.2-.14-.32-.3-.64-.47-.95l4.86-5.71c.7-.83,1.93-.92,2.73-.2.03.03.07.06.1.1.71.73.76,1.91.09,2.7l-.63.74,2.67-1.33c1.47-.73,3.24-.11,3.95,1.39Z"/>
  <path class="cls-1" d="M205.49,11.09c1.42-1.21,2.68-1.63,3.19-1.15.13.13.22.31.24.56l.22,2.68,3.7-7.43c1.02-2.05,3.22-4.23,4.92-4.88l1.78-.68c1.7-.65,2.25.48,1.23,2.53l-8.16,16.4c-.84-.06-1.84.13-2.94.53-.87.32-1.81.78-2.8,1.36-.79.47-1.61,1.01-2.44,1.64-.46.34-.92.71-1.38,1.09-.38.32-.76.65-1.15,1l-3.59-2.32c-.52-.34-.08-1.61.97-2.84.05-.05.09-.1.14-.16,1.03-1.14,2.22-1.79,2.72-1.47l.46.3-.18-2.19c-.1-1.21,1.28-3.43,3.07-4.96Z"/>
  <path class="cls-1" d="M201.76,7.75c-1.76-.6-3.08-.52-3.38.12-.08.17-.09.37-.02.61l.75,2.58-6.1-5.54c-1.68-1.52-4.51-2.74-6.32-2.71l-1.9.03c-1.81.03-1.92,1.29-.24,2.82l13.45,12.22c.76-.37,1.76-.57,2.93-.6.93-.03,1.97.04,3.09.22.9.14,1.86.34,2.85.61.55.15,1.11.31,1.68.5.47.15.94.32,1.42.5l2.51-3.5c.36-.51-.5-1.53-1.92-2.28-.06-.03-.12-.06-.18-.09-1.36-.67-2.7-.84-3.05-.35l-.32.45-.62-2.11c-.34-1.16-2.41-2.71-4.63-3.47Z"/>
  <g>
    <path class="cls-7" d="M270.63,154.89c2.67,2.92,6.64,4.1,10.73,3.63.07-.02.19,0,.25-.06,3.53-.45,7.14-2.17,10.15-5.09,3.11-2.94,5.03-6.65,5.71-10.29.17-.89.24-1.76.26-2.65.03-3.18-.97-6.23-3.12-8.54-2.67-2.92-6.61-4.11-10.73-3.63-3.61.43-7.3,2.16-10.4,5.15-3.11,2.94-5.03,6.65-5.71,10.29-.76,4.12.14,8.24,2.85,11.19Z"/>
    <path class="cls-2" d="M281.62,158.46c3.53-.45,7.14-2.17,10.15-5.09,3.11-2.94,5.03-6.65,5.71-10.29.17-.89.24-1.76.26-2.65-3.53.45-7.11,2.16-10.15,5.09-3.11,2.94-5.03,6.65-5.71,10.29-.17.89-.24,1.76-.26,2.65Z"/>
  </g>
  <path class="cls-7" d="M120.1,151.8c-1.54,2.74-4.11,4.6-7.14,5.51-.81.24-1.65.41-2.51.52-.07,0-.18.04-.25,0-3.54.38-7.44-.45-11.01-2.6-3.68-2.15-6.37-5.31-7.84-8.69-.37-.83-.62-1.66-.85-2.52-.3-1.26-.43-2.54-.37-3.8.09-1.82.57-3.61,1.51-5.24,1.95-3.46,5.53-5.53,9.65-6.02,3.61-.41,7.59.41,11.27,2.6,3.69,2.15,6.37,5.31,7.84,8.7,1.66,3.84,1.69,8.06-.29,11.56Z"/>
  <path class="cls-2" d="M112.96,157.31c-.81.24-1.65.41-2.51.52-.07,0-.18.04-.25,0-3.54.38-7.44-.45-11.01-2.6-3.68-2.15-6.37-5.31-7.84-8.69-.37-.83-.62-1.66-.85-2.52-.3-1.26-.43-2.54-.37-3.8,3.98,0,8.16,1.2,12.12,3.7,4.78,2.96,8.27,7.31,10.18,11.97.2.48.38.95.53,1.43Z"/>
</svg>